<svg width="16" height="18" fill="none" xmlns="http://www.w3.org/2000/svg"><path d="M3.215 8.545h0a.447.447 0 01.331-.534m-.331.534l9.894-.485a.39.39 0 00-.468.298l-.049-.011h0l-1.336 5.926a.453.453 0 00-.002.19l.05-.01-.05.01.35 1.694H5.063l.349-1.693-.049-.01.049.01a.452.452 0 00-.002-.19L4.074 8.346a.44.44 0 00-.528-.336m-.331.534l1.314 5.832-.367 1.78h-1.62L1.837 6.76a1.714 1.714 0 011.372-1.82l2.025-.39h0a1.94 1.94 0 001.559-1.91v0-.798h3.081v.798a1.94 1.94 0 001.559 1.91l.01-.05-.01.05 2.024.39a1.714 1.714 0 011.373 1.82l-.705 9.396-10.91-7.612zm.331-.534l.011.049-.011-.05s0 0 0 0zm10.077-3.946l-.01.049.01-.05-2.025-.39a1.049 1.049 0 01-.842-1.033v-.849A.838.838 0 009.924.95H6.742a.838.838 0 00-.831.842v.849c0 .504-.355.938-.842 1.033l-2.025.39h0A2.605 2.605 0 00.958 6.829l.708 9.444h0a.84.84 0 00.83.778H14.17a.84.84 0 00.83-.779l.708-9.443c.1-1.326-.797-2.514-2.086-2.763z" fill="#848484" stroke="#848484" stroke-width=".1"/><path d="M8.334 5.677a.365.365 0 00-.363.367v6.867c0 .202.162.367.363.367.2 0 .362-.165.362-.367V6.044a.365.365 0 00-.362-.367z" fill="#848484" stroke="#848484" stroke-width=".1"/></svg>