<svg width="16" height="16" fill="none" xmlns="http://www.w3.org/2000/svg"><path d="M15.998 11.557a.526.526 0 00-.18-.363l-2.89-2.431a.44.44 0 00-.62.046l-.24.267-.697-.615-.822-7.032-.001-.008C10.442.611 9.798 0 9.048 0A1.44 1.44 0 008 .46 1.447 1.447 0 006.953 0c-.75 0-1.395.611-1.501 1.421v.008L4.628 8.46l-.696.616-.241-.268a.44.44 0 00-.62-.046l-2.89 2.432a.541.541 0 00-.057.754l3.312 3.888a.452.452 0 00.336.163h.007a.45.45 0 00.333-.152L6.76 12.93a.545.545 0 000-.72l-.152-.169L8 10.521l1.393 1.52-.153.17c-.18.2-.18.52.001.719l2.646 2.918a.45.45 0 00.333.152h.007a.452.452 0 00.336-.163l3.311-3.889a.54.54 0 00.124-.39zM3.791 14.75l-2.629-3.087L3.315 9.85l2.452 2.719-1.977 2.18zm3.583-4.992L5.95 11.312 4.594 9.81l.771-.682a.525.525 0 00.17-.333l.845-7.232c.042-.307.288-.539.573-.539.319 0 .578.284.578.632v7.688a.61.61 0 01-.157.414zm1.252 0a.61.61 0 01-.157-.414V1.655c0-.348.26-.632.578-.632.285 0 .53.232.573.54l.845 7.231c.015.131.076.25.17.333l.771.682-1.355 1.503-1.425-1.555zm3.584 4.992l-1.977-2.18 2.452-2.719 2.153 1.812-2.628 3.087z" fill="#848484"/></svg>