<svg width="18" height="19" fill="none" xmlns="http://www.w3.org/2000/svg"><path d="M14.396 7.078l-12.09 5.874c-.71.345-1.07 1.164-.802 1.825l.325.8c.268.66 1.065.918 1.776.572l12.089-5.873c.71-.346 1.07-1.165.803-1.826l-.325-.8c-.268-.66-1.065-.917-1.776-.572zm-8.08 6.796L3.28 15.35c-.237.115-.502.03-.592-.191l-.324-.8c-.09-.22.03-.493.267-.608l3.037-1.475.649 1.598zm6.045-2.936l-5.185 2.519-.649-1.599 5.186-2.52.649 1.6zm1.72-.836l-.86.418-.649-1.599.86-.417.648 1.598zm1.556-1.234c.09.22-.03.493-.267.608l-.43.209-.65-1.599.43-.209c.238-.115.503-.029.593.191l.324.8zm-5.399-5.162c-.575-.86-1.772-1.138-2.855-.602l-.792.392c-1.13.558-1.814 1.78-1.592 2.843.287 1.377 1.787 1.992 3.151 1.317l3.547-1.754c.245-.121.518-.035.61.192.09.227.363.313.608.192s.37-.403.278-.63l-.331-.823c-.404-1.006-1.524-1.458-2.624-1.127zm1.128 1.373L7.82 6.833c-.796.394-1.714.063-1.893-.795-.132-.635.295-1.374.995-1.72l.792-.391c.733-.363 1.552-.105 1.826.576.091.227.364.313.609.192.599-.296 1.255-.178 1.625.246a1.594 1.594 0 00-.408.138z" fill="#848484"/></svg>