<svg width="26" height="26" fill="none" xmlns="http://www.w3.org/2000/svg"><g clip-path="url(#clip0)"><path d="M23.937 3.686c-1.346-1.46-3.192-2.264-5.2-2.264-1.5 0-2.875.474-4.085 1.41A8.358 8.358 0 0013 4.557a8.353 8.353 0 00-1.652-1.725c-1.21-.936-2.584-1.41-4.085-1.41-2.008 0-3.855.804-5.2 2.264C.732 5.128 0 7.099 0 9.236c0 2.198.82 4.211 2.579 6.334 1.574 1.9 3.836 3.827 6.455 6.059.894.762 1.908 1.626 2.96 2.547a1.525 1.525 0 002.01 0c1.053-.92 2.068-1.785 2.963-2.548 2.619-2.231 4.88-4.159 6.455-6.058C25.18 13.447 26 11.434 26 9.235c0-2.136-.733-4.107-2.063-5.55z" fill="#D8CBF9"/></g><defs><clipPath id="clip0"><path fill="#fff" d="M0 0h26v26H0z"/></clipPath></defs></svg>