<svg width="16" height="16" fill="none" xmlns="http://www.w3.org/2000/svg"><path d="M12.934 0v.98h1.18l-2.301 2.044a4.623 4.623 0 00-3.206-1.267c-1.688 0-3.16.879-3.925 2.173a4.814 4.814 0 00-.198-.004C2.01 3.926 0 5.81 0 8.126c0 2.15 1.734 3.929 3.961 4.172V13.6H2.396v.98H3.96V16h1.046v-1.42H6.64v-.98H5.007v-1.302c1.466-.16 2.718-.985 3.403-2.144.065.002.131.004.197.004 2.473 0 4.484-1.884 4.484-4.2 0-.788-.232-1.525-.636-2.155l2.5-2.22V2.8H16V0h-3.066zm-8.45 11.347c-1.896 0-3.438-1.445-3.438-3.22 0-1.708 1.424-3.108 3.218-3.215-.092.334-.14.685-.14 1.046 0 1.89 1.338 3.491 3.174 4.017-.623.83-1.652 1.372-2.814 1.372zm3.284-2.266C6.277 8.73 5.169 7.462 5.169 5.958c0-.333.054-.654.154-.955 1.492.351 2.6 1.618 2.6 3.123 0 .333-.055.653-.155.955zm1.06.09c.091-.334.14-.684.14-1.045 0-1.89-1.339-3.491-3.174-4.017.622-.83 1.651-1.372 2.813-1.372 1.896 0 3.439 1.444 3.439 3.22 0 1.707-1.425 3.108-3.219 3.215z" fill="#848484"/></svg>