<svg width="17" height="18" fill="none" xmlns="http://www.w3.org/2000/svg"><path d="M16.076 13.586l.149-.087-.108-.135-.178-.225h0a7.111 7.111 0 01-1.552-4.397V6.419C14.387 3.34 11.738.85 8.5.85c-3.238 0-5.887 2.49-5.887 5.57v2.322c0 1.574-.55 3.136-1.552 4.397h0l-.178.225-.108.135.149.087.252.149s0 0 0 0c.07.041 1.227.706 3.687 1.088a5.11 5.11 0 01-.415.34h0l-.443.325-.082.06.026.1.368 1.39.03.112h8.307l.03-.112.367-1.39.026-.1-.082-.06-.443-.325s0 0 0 0a5.133 5.133 0 01-.415-.34c2.457-.382 3.615-1.045 3.687-1.088 0 0 0 0 0 0l.252-.149zm-4.037 2.226h0l.08.059-.123.463H5.004l-.123-.463.08-.059h0c1.338-.983 2.16-2.421 2.3-4.002a4.408 4.408 0 002.477 0c.141 1.58.963 3.02 2.3 4.002zm-6.94-7.844v-1.29c0-.337.292-.625.67-.625h1.368a9.364 9.364 0 004.758-1.288.02.02 0 01.007.002v3.2s0 0 0 0c0 1.76-1.518 3.206-3.402 3.206-1.884 0-3.402-1.446-3.402-3.205zm9.87 5.266c-.561.236-1.704.629-3.494.856a4.651 4.651 0 01-.909-2.612c1.297-.686 2.182-1.999 2.182-3.51V4.756c0-.454-.388-.81-.848-.81a.877.877 0 00-.446.122 8.493 8.493 0 01-4.317 1.17H5.768c-.828 0-1.516.637-1.516 1.44v1.29c0 1.511.885 2.824 2.182 3.51a4.65 4.65 0 01-.908 2.612c-1.783-.227-2.93-.62-3.494-.857a7.893 7.893 0 001.427-4.491V6.419c0-2.613 2.253-4.753 5.041-4.753 2.788 0 5.04 2.14 5.04 4.753v2.323c0 1.59.505 3.167 1.429 4.492z" fill="#848484" stroke="#848484" stroke-width=".3"/></svg>