<svg width="12" height="18" fill="none" xmlns="http://www.w3.org/2000/svg"><path d="M7.35 15.885h0a.413.413 0 01.228.536 1.08 1.08 0 01-1.009.679H5.431a1.08 1.08 0 01-1.01-.68h0a.413.413 0 01.23-.535h0a.411.411 0 01.535.23m2.163-.23l-.78.39H5.431a.264.264 0 01-.245-.16m2.163-.23a.411.411 0 00-.535.23l.535-.23zm-2.163.23l-.093.036.093-.037s0 0 0 0z" fill="#848484" stroke="#848484" stroke-width=".2"/><path d="M8.77 8.896a4.04 4.04 0 012.117 2.98 1.66 1.66 0 01-.382 1.326s0 0 0 0L8.771 8.896zm0 0a3.692 3.692 0 00-1.63-5.925c.164-.24.251-.523.251-.819 0-.69-.56-1.252-1.249-1.252h0c-.277 0-.54.09-.739.258m3.368 7.738L5.403 1.158m0 0s0 0 0 0l.064.077-.064-.077zm.53.631l-.064-.076.065.076h0zm0 0a.323.323 0 01.209-.064h0c.234 0 .426.191.426.427 0 .17-.066.33-.186.45l-.448-.813zm4.17 13.376h0a.82.82 0 00-.641-1.321.813.813 0 00-.756.511L8.3 15.362a.67.67 0 00.283.824s0 0 0 0l1.52-1.021zm0 0l-.667.855m.667-.855l-.667.855m0 0s0 0 0 0h0zm1.634-1.672a1.642 1.642 0 00-.671-1.034L2.107 9.92a3.94 3.94 0 00-.895 1.97 1.56 1.56 0 00.359 1.247l-.076.065s0 0 0 0c.034.04.069.077.106.112a1.642 1.642 0 00-.353 2.36l.079-.062-.079.061.667.855a1.488 1.488 0 001.913.372c.637-.369.91-1.162.634-1.846l-.404-1.007-.093.037.093-.037a1.513 1.513 0 00-.024-.056h2.122a.412.412 0 000-.825H3.378v-.56c0-.03.024-.053.053-.053H8.57c.029 0 .053.024.053.054v.644a1.64 1.64 0 00-.68.796l.093.037-.093-.037-.405 1.007a1.497 1.497 0 00.635 1.846l.05-.086-.05.086a1.488 1.488 0 001.912-.372l-.078-.061.079.061.667-.855s0 0 0 0c.292-.375.408-.857.318-1.325zM2.323 6.476c0 .925.343 1.772.906 2.42l3.153-6.293a.63.63 0 01-.45.186h0l-.027.002a3.686 3.686 0 00-3.582 3.685zm.24 9.544l-.078.062.079-.062-.667-.855-.08.062.08-.062a.82.82 0 01.234-1.212l-.05-.086.05.086a.812.812 0 011.163.402s0 0 0 0l.405 1.008a.67.67 0 01-.283.823l.05.086-.05-.086a.664.664 0 01-.852-.166zm7.318-3.356l.076.065-.076-.065a.827.827 0 01-.436.266v-.323a.88.88 0 00-.463-.775v-.317a.412.412 0 10-.823 0v.213H3.843v-.213a.412.412 0 10-.824 0v.316a.88.88 0 00-.465.776v.323a.827.827 0 01-.627-.932 3.197 3.197 0 011.967-2.502A3.65 3.65 0 006 10.162a3.65 3.65 0 002.106-.666 3.197 3.197 0 011.966 2.502.832.832 0 01-.191.666zM3.147 6.476A2.86 2.86 0 016 3.614a2.86 2.86 0 012.853 2.862A2.86 2.86 0 016 9.337a2.86 2.86 0 01-2.853-2.861z" fill="#848484" stroke="#848484" stroke-width=".2"/><path d="M7.685 13.87a.415.415 0 000-.584.413.413 0 00-.291-.12l-.292.703a.412.412 0 00.583 0zm0 0s0 0 0 0l-.071-.071.07.07s0 0 0 0zM5.284 6.184h0a.413.413 0 01-.291.704.41.41 0 01-.292-.12s0 0 0 0l.583-.584zm0 0a.824.824 0 00-1.167 0h0m1.167 0H4.117m0 0a.413.413 0 000 .583v-.583zm2.226 1.342h0a.411.411 0 01.58-.06l-.58.06zm0 0A.44.44 0 016 7.691m.343-.165L6 7.691m-.922-.225h0a.411.411 0 01.579.06l-.58-.06zm0 0a.413.413 0 00-.06.58l.06-.58zM6 7.69a.44.44 0 01-.343-.165L6 7.691zm-.983.355a1.26 1.26 0 001.966 0 .413.413 0 00-.06-.58l-1.906.58zm2.867-1.861h0c.16.161.16.422 0 .583 0 0 0 0 0 0l-.07-.07a.311.311 0 01-.442 0l.512-.513zm0 0a.825.825 0 00-1.167 0h0m1.167 0H6.717m0 0a.413.413 0 000 .583v-.583zm.582.583h.003-.585a.41.41 0 00.582 0l-.07-.07.07.07z" fill="#848484" stroke="#848484" stroke-width=".2"/></svg>