<svg width="16" height="16" fill="none" xmlns="http://www.w3.org/2000/svg"><path d="M15.389 6.708a1.408 1.408 0 00-1.854.23V2.345a1.407 1.407 0 00-1.925-1.307A1.406 1.406 0 009.068.65a1.408 1.408 0 00-2.096 1.225v.08a1.407 1.407 0 00-1.875 1.326v1.16c-.343.18-.603.496-.707.877a1.407 1.407 0 00-1.925 1.307v3.658a1.408 1.408 0 00-2.22 1.725c1.429 2.09 1.325 1.95 1.397 2.01l1.76 1.453v.06a.469.469 0 10.938 0v-.281a.469.469 0 00-.17-.361l-1.88-1.552-1.27-1.858a.471.471 0 01.776-.531l.75 1.098a.469.469 0 00.857-.265V6.625a.47.47 0 11.937.016v2.796a.469.469 0 00.938 0v-3.75a.47.47 0 01.937 0v3.75a.469.469 0 00.938 0v-3.28a.47.47 0 01.938 0v3.28a.469.469 0 00.937 0V7.875a.47.47 0 01.938 0v4.455c0 .73-.285 1.416-.8 1.932a.469.469 0 00-.138.332v.937a.469.469 0 10.938 0v-.75a3.643 3.643 0 00.937-2.45V7.874c0-.677-.48-1.244-1.119-1.377V1.406a.47.47 0 01.938 0v4.282a.469.469 0 00.937 0v-3.33a.47.47 0 11.938-.015v6.094a.469.469 0 00.856.264l.75-1.098a.47.47 0 11.778.531l-1.275 1.864-1.7 1.492a.47.47 0 00-.16.353v3.687a.469.469 0 00.938 0v-3.475c1.727-1.516 1.615-1.41 1.663-1.479l1.308-1.913a1.41 1.41 0 00-.367-1.956zM6.034 4.31V3.28a.47.47 0 01.938 0v1.63a1.469 1.469 0 00-.04.022 1.41 1.41 0 00-.898-.621zm1.875.469V1.875a.47.47 0 01.938 0v3.592a1.41 1.41 0 00-.938-.687zM2.23 2.894a.469.469 0 00.663-.663l-.656-.656a.469.469 0 00-.663.663l.656.656zM4.07 1.55a.469.469 0 00.906-.242l-.24-.896a.469.469 0 00-.905.243l.24.896zM.411 4.737l.896.24a.469.469 0 00.243-.906l-.896-.24a.469.469 0 00-.243.906z" fill="#848484"/></svg>