<svg width="20" height="20" fill="none" xmlns="http://www.w3.org/2000/svg"><path fill-rule="evenodd" clip-rule="evenodd" d="M20 10c0-5.522-4.478-10-10-10S0 4.478 0 10c0 4.99 3.656 9.128 8.438 9.88v-6.99h-2.54V10h2.54V7.796c0-2.506 1.493-3.89 3.777-3.89 1.094 0 2.239.195 2.239.195v2.46h-1.262c-1.242 0-1.63.771-1.63 1.563V10h2.774l-.444 2.891h-2.33v6.988c4.782-.75 8.438-4.887 8.438-9.88V10z" fill="#703EF0"/><path fill-rule="evenodd" clip-rule="evenodd" d="M13.892 12.892L14.335 10h-2.773V8.124c0-.79.387-1.562 1.63-1.562h1.261v-2.46s-1.144-.196-2.238-.196c-2.284 0-3.778 1.383-3.778 3.89v2.205h-2.54v2.89h2.54v6.989a10.058 10.058 0 003.125 0v-6.988h2.33z" fill="#fff"/></svg>