<svg width="16" height="16" fill="none" xmlns="http://www.w3.org/2000/svg"><path d="M13.5 0h-11A2.503 2.503 0 000 2.5v11A2.503 2.503 0 002.5 16h11a2.503 2.503 0 002.5-2.5v-11A2.503 2.503 0 0013.5 0zM15 13.5a1.5 1.5 0 01-1.5 1.5h-5v-3h-1v3h-5A1.5 1.5 0 011 13.5v-11A1.5 1.5 0 012.5 1h11A1.5 1.5 0 0115 2.5v11z" fill="#848484"/><path d="M8 3h.06l.011-1h-.07a7.01 7.01 0 00-1.004.072l.144.99A6 6 0 018.001 3zm-1.75.267l-.305-.95a6.4 6.4 0 00-1 .417l.46.887c.272-.141.554-.26.845-.354z" fill="#848484"/><path d="M9.142 2.093l-.165.987a5.339 5.339 0 012.925 1.5L10.692 7H8.933l1.482-2.223-.832-.555L7.733 7H5.309L4.1 4.578a4.91 4.91 0 01.535-.47l-.608-.796A5.1 5.1 0 003.1 4.2l-.185.25L4.69 8h6.618l1.778-3.558-.191-.25a6.167 6.167 0 00-3.754-2.099z" fill="#848484"/></svg>