<svg width="16" height="16" viewBox="0 0 18 18" fill="none" xmlns="http://www.w3.org/2000/svg"><path d="M16.978 4.341h0a.415.415 0 010 .587l-12.05 12.05a.414.414 0 01-.587 0l-3.32-3.32.071-.07-.07.07a.415.415 0 010-.586h0l1.066-1.066.029-.03h0l.03-.029L8.69 5.403l.07.071-.07-.07h0l.07.07-.07-.07h0l2.19-2.19 6.098 1.127zm0 0l-3.32-3.32h0m3.32 3.32l-3.32-3.32m0 0a.415.415 0 00-.586 0h0m.587 0h-.587m0 0L10.91 3.184l2.162-2.161zM10.88 3.214h0zm0 0h-.001 0zm1.976-.803l.936.937s0 0 0 0a.415.415 0 01-.587.586l-.936-.936-.51.509.482.481-.07.07.07-.07a.415.415 0 01-.587.587l-.481-.481-.509.508.937.937a.415.415 0 010 .587h0a.414.414 0 01-.587 0l.07-.071-.07.07-.937-.936-.508.509.481.481s0 0 0 0a.415.415 0 11-.587.587l-.481-.481-.508.508.936.936h0a.415.415 0 010 .587l3.446-5.905zm0 0l.508-.508 2.733 2.733L4.635 16.098l-2.733-2.733.508-.508.482.48a.414.414 0 10.587-.586h0l-.482-.481.509-.509.936.936a.414.414 0 00.587 0h0a.415.415 0 000-.587l-.936-.936.508-.508.482.48a.414.414 0 00.587 0 .415.415 0 000-.586h0l-.482-.481.509-.509.936.936.07-.07-.07.07a.414.414 0 00.587 0 .415.415 0 000-.587l-.936-.936.508-.508.481.48s0 0 0 0a.414.414 0 10.587-.586h0l-.481-.481.509-.509.936.936a.414.414 0 00.587 0l3.446-5.905z" fill="#fff" stroke="#fff" stroke-width=".2"/><path d="M5.843 12.947h0a.415.415 0 01.587 0h0a.415.415 0 010 .587h0m-.587-.587l.517.517.07.07m-.587-.587l-1.635 1.635a.415.415 0 000 .587h0a.414.414 0 00.587 0l1.048-2.222zm.587.587L4.795 15.17l1.635-1.635zm.874-1.967A.39.39 0 007 11.7a.433.433 0 00-.1.282c0 .099.032.202.1.281a.39.39 0 00.304.134.39.39 0 00.304-.134c.069-.08.1-.182.1-.281a.43.43 0 00-.1-.282.39.39 0 00-.304-.133z" fill="#fff" stroke="#fff" stroke-width=".2"/></svg>